<svg xmlns="http://www.w3.org/2000/svg" width="1400" height="460" viewBox="0 0 1400 460" role="img" aria-labelledby="d">
  <desc id="d">Flat 36-byte TOPHAT model image showing byte indices and hex values.</desc>
  <defs>
    <style>
      .bg { fill: #f8fafc; }
      .panel { fill: #ffffff; stroke: #cbd5e1; stroke-width: 1.5; }
      .internal { fill: #dbeafe; stroke: #60a5fa; stroke-width: 1; }
      .leaf { fill: #dcfce7; stroke: #4ade80; stroke-width: 1; }
      .idx { font: 600 10px 'Menlo', 'SF Mono', monospace; fill: #334155; }
      .hex { font: 700 12px 'Menlo', 'SF Mono', monospace; fill: #0f172a; }
      .label { font: 500 13px 'Menlo', 'SF Mono', monospace; fill: #0f172a; }
      .note { font: 500 12px 'Menlo', 'SF Mono', monospace; fill: #475569; }
      .keyi { fill: #dbeafe; stroke: #60a5fa; stroke-width: 1; }
      .keyl { fill: #dcfce7; stroke: #4ade80; stroke-width: 1; }
    </style>
  </defs>

  <rect class="bg" x="0" y="0" width="1400" height="460"/>
  <rect class="panel" x="28" y="24" width="1344" height="408" rx="10"/>

  <rect class="keyi" x="52" y="48" width="16" height="16" rx="3"/>
  <text class="note" x="76" y="61">bytes 0..27 (internal node records)</text>
  <rect class="keyl" x="340" y="48" width="16" height="16" rx="3"/>
  <text class="note" x="364" y="61">bytes 28..35 (leaf values)</text>

  <g transform="translate(52,90)">
    <script type="application/ecmascript"><![CDATA[]]></script>

    <rect class="internal" x="0" y="0" width="34" height="56"/>
    <rect class="internal" x="34" y="0" width="34" height="56"/>
    <rect class="internal" x="68" y="0" width="34" height="56"/>
    <rect class="internal" x="102" y="0" width="34" height="56"/>
    <rect class="internal" x="136" y="0" width="34" height="56"/>
    <rect class="internal" x="170" y="0" width="34" height="56"/>
    <rect class="internal" x="204" y="0" width="34" height="56"/>
    <rect class="internal" x="238" y="0" width="34" height="56"/>
    <rect class="internal" x="272" y="0" width="34" height="56"/>
    <rect class="internal" x="306" y="0" width="34" height="56"/>
    <rect class="internal" x="340" y="0" width="34" height="56"/>
    <rect class="internal" x="374" y="0" width="34" height="56"/>
    <rect class="internal" x="408" y="0" width="34" height="56"/>
    <rect class="internal" x="442" y="0" width="34" height="56"/>
    <rect class="internal" x="476" y="0" width="34" height="56"/>
    <rect class="internal" x="510" y="0" width="34" height="56"/>
    <rect class="internal" x="544" y="0" width="34" height="56"/>
    <rect class="internal" x="578" y="0" width="34" height="56"/>
    <rect class="internal" x="612" y="0" width="34" height="56"/>
    <rect class="internal" x="646" y="0" width="34" height="56"/>
    <rect class="internal" x="680" y="0" width="34" height="56"/>
    <rect class="internal" x="714" y="0" width="34" height="56"/>
    <rect class="internal" x="748" y="0" width="34" height="56"/>
    <rect class="internal" x="782" y="0" width="34" height="56"/>
    <rect class="internal" x="816" y="0" width="34" height="56"/>
    <rect class="internal" x="850" y="0" width="34" height="56"/>
    <rect class="internal" x="884" y="0" width="34" height="56"/>
    <rect class="internal" x="918" y="0" width="34" height="56"/>

    <rect class="leaf" x="952" y="0" width="34" height="56"/>
    <rect class="leaf" x="986" y="0" width="34" height="56"/>
    <rect class="leaf" x="1020" y="0" width="34" height="56"/>
    <rect class="leaf" x="1054" y="0" width="34" height="56"/>
    <rect class="leaf" x="1088" y="0" width="34" height="56"/>
    <rect class="leaf" x="1122" y="0" width="34" height="56"/>
    <rect class="leaf" x="1156" y="0" width="34" height="56"/>
    <rect class="leaf" x="1190" y="0" width="34" height="56"/>

    <text class="idx" x="9" y="14">0</text><text class="hex" x="8" y="38">02</text>
    <text class="idx" x="41" y="14">1</text><text class="hex" x="42" y="38">18</text>
    <text class="idx" x="75" y="14">2</text><text class="hex" x="76" y="38">01</text>
    <text class="idx" x="109" y="14">3</text><text class="hex" x="110" y="38">02</text>
    <text class="idx" x="143" y="14">4</text><text class="hex" x="144" y="38">00</text>
    <text class="idx" x="177" y="14">5</text><text class="hex" x="178" y="38">08</text>
    <text class="idx" x="211" y="14">6</text><text class="hex" x="212" y="38">03</text>
    <text class="idx" x="245" y="14">7</text><text class="hex" x="246" y="38">04</text>
    <text class="idx" x="276" y="14">8</text><text class="hex" x="280" y="38">07</text>
    <text class="idx" x="310" y="14">9</text><text class="hex" x="314" y="38">23</text>
    <text class="idx" x="339" y="14">10</text><text class="hex" x="348" y="38">05</text>
    <text class="idx" x="373" y="14">11</text><text class="hex" x="382" y="38">06</text>
    <text class="idx" x="407" y="14">12</text><text class="hex" x="416" y="38">04</text>
    <text class="idx" x="441" y="14">13</text><text class="hex" x="450" y="38">14</text>
    <text class="idx" x="475" y="14">14</text><text class="hex" x="484" y="38">07</text>
    <text class="idx" x="509" y="14">15</text><text class="hex" x="518" y="38">08</text>
    <text class="idx" x="543" y="14">16</text><text class="hex" x="552" y="38">01</text>
    <text class="idx" x="577" y="14">17</text><text class="hex" x="586" y="38">14</text>
    <text class="idx" x="611" y="14">18</text><text class="hex" x="620" y="38">09</text>
    <text class="idx" x="645" y="14">19</text><text class="hex" x="654" y="38">0A</text>
    <text class="idx" x="679" y="14">20</text><text class="hex" x="688" y="38">06</text>
    <text class="idx" x="713" y="14">21</text><text class="hex" x="722" y="38">28</text>
    <text class="idx" x="747" y="14">22</text><text class="hex" x="756" y="38">0B</text>
    <text class="idx" x="781" y="14">23</text><text class="hex" x="790" y="38">0C</text>
    <text class="idx" x="815" y="14">24</text><text class="hex" x="824" y="38">03</text>
    <text class="idx" x="849" y="14">25</text><text class="hex" x="858" y="38">1C</text>
    <text class="idx" x="883" y="14">26</text><text class="hex" x="892" y="38">0D</text>
    <text class="idx" x="917" y="14">27</text><text class="hex" x="926" y="38">0E</text>

    <text class="idx" x="951" y="14">28</text><text class="hex" x="960" y="38">08</text>
    <text class="idx" x="985" y="14">29</text><text class="hex" x="994" y="38">12</text>
    <text class="idx" x="1019" y="14">30</text><text class="hex" x="1028" y="38">19</text>
    <text class="idx" x="1053" y="14">31</text><text class="hex" x="1062" y="38">2D</text>
    <text class="idx" x="1087" y="14">32</text><text class="hex" x="1096" y="38">37</text>
    <text class="idx" x="1121" y="14">33</text><text class="hex" x="1130" y="38">55</text>
    <text class="idx" x="1155" y="14">34</text><text class="hex" x="1164" y="38">5F</text>
    <text class="idx" x="1189" y="14">35</text><text class="hex" x="1198" y="38">8C</text>
  </g>

  <text class="label" x="52" y="196">Node record boundaries (every 4 bytes): [0..3], [4..7], [8..11], ..., [24..27]</text>
  <text class="note" x="52" y="226">Each internal record = [feature_id, threshold, left_child, right_child].</text>
  <text class="note" x="52" y="248">Leaf block = [L0, L1, L2, L3, L4, L5, L6, L7].</text>

  <rect class="panel" x="52" y="282" width="1224" height="120" rx="8"/>
  <text class="label" x="68" y="310">Flat 36-byte image (hex)</text>
  <text class="hex" x="68" y="336">02 18 01 02 00 08 03 04 07 23 05 06 04 14 07 08 01 14 09 0A</text>
  <text class="hex" x="68" y="362">06 28 0B 0C 03 1C 0D 0E 08 12 19 2D 37 55 5F 8C</text>
</svg>
